<svg width="40" height="40" viewBox="0 0 40 40" fill="none" xmlns="http://www.w3.org/2000/svg">
<g clip-path="url(#clip0_1_935)">
<path d="M20 40.0001C31.0457 40.0001 40 31.0458 40 20.0001C40 8.95443 31.0457 0.00012207 20 0.00012207C8.9543 0.00012207 0 8.95443 0 20.0001C0 31.0458 8.9543 40.0001 20 40.0001Z" fill="#D80027"/>
<path d="M10.9453 12.1713L12.6719 17.4838H18.2578L13.7422 20.7728L15.4688 26.0853L10.9453 22.8041L6.42188 26.0853L8.15625 20.7728L3.63281 17.4838H9.21875L10.9453 12.1713Z" fill="#FFDA44"/>
<path d="M23.7116 30.9763L22.3913 29.3513L20.4382 30.1091L21.571 28.3513L20.2507 26.7185L22.2742 27.2576L23.4148 25.4998L23.5241 27.5935L25.5554 28.1326L23.5945 28.8826L23.7116 30.9763Z" fill="#FFDA44"/>
<path d="M26.3367 26.2107L26.9617 24.2107L25.2507 22.9998L27.3445 22.9685L27.9617 20.9685L28.6414 22.9529L30.7351 22.9294L29.0554 24.1794L29.7273 26.1638L28.0164 24.9529L26.3367 26.2107Z" fill="#FFDA44"/>
<path d="M29.8743 14.6787L28.9524 16.5616L30.4524 18.0225L28.3821 17.7256L27.4602 19.6006L27.1008 17.5381L25.0227 17.2412L26.8821 16.2647L26.5227 14.1944L28.0227 15.6553L29.8743 14.6787Z" fill="#FFDA44"/>
<path d="M23.7653 8.97632L23.609 11.0623L25.5543 11.8513L23.5153 12.3513L23.3668 14.4451L22.2653 12.6638L20.2262 13.1638L21.5778 11.5623L20.4684 9.78882L22.4137 10.5779L23.7653 8.97632Z" fill="#FFDA44"/>
</g>
<defs>
<clipPath id="clip0_1_935">
<rect width="40" height="40" fill="white"/>
</clipPath>
</defs>
</svg>
