<svg width="16" height="16" viewBox="0 0 16 16" fill="none" xmlns="http://www.w3.org/2000/svg">
<path fill-rule="evenodd" clip-rule="evenodd" d="M7.99925 13.2717C4.93321 11.5255 3.22318 9.7898 2.39626 8.28385C1.54992 6.74252 1.62377 5.44434 2.0934 4.52298C3.05872 2.62916 5.80378 2.02357 7.4763 4.13889L7.99921 4.80026L8.52217 4.13893C10.195 2.02352 12.9402 2.6292 13.9055 4.52298C14.3751 5.44433 14.4489 6.7425 13.6025 8.28384C12.7756 9.78979 11.0654 11.5255 7.99925 13.2717ZM7.99928 2.7375C5.64647 0.501763 2.17555 1.42579 0.905488 3.91747C0.20846 5.28495 0.198939 7.05236 1.22753 8.9256C2.247 10.7822 4.2796 12.7419 7.67675 14.6196L7.99924 14.7979L8.32173 14.6196C11.719 12.742 13.7517 10.7822 14.7712 8.92562C15.7999 7.05239 15.7904 5.28496 15.0934 3.91747C13.8233 1.42574 10.3523 0.501796 7.99928 2.7375Z" fill="#FF5A30"/>
</svg>
