<svg width="40" height="40" viewBox="0 0 40 40" fill="none" xmlns="http://www.w3.org/2000/svg">
<g clip-path="url(#clip0_1_930)">
<path d="M40 20.0001C40 31.0457 31.0456 40.0001 20 40.0001C8.95437 40.0001 0 31.0457 0 20.0001C0 20.0048 20 0.0023877 20 0.00012207C31.0456 0.00012207 40 8.9545 40 20.0001Z" fill="#0052B4"/>
<path d="M20 0.00012207C19.9989 0.00012207 19.9977 0.000200195 19.9966 0.000200195L20 0.00012207Z" fill="#F0F0F0"/>
<path d="M19.947 20.0006H20.0005C20.0005 19.9825 20.0005 19.9652 20.0005 19.9471C19.9827 19.965 19.9649 19.9828 19.947 20.0006Z" fill="#F0F0F0"/>
<path d="M20 10.4341C20 6.91495 20 4.60973 20 0.00012207L19.9966 0.000200195C8.95247 0.00199707 0 8.95463 0 19.9992H10.4348V14.1233L16.3107 19.9992H19.9466C19.9645 19.9814 19.9823 19.9636 20.0001 19.9457C20.0001 18.5983 20.0001 17.396 20.0001 16.3101L14.1241 10.4341H20Z" fill="#F0F0F0"/>
<path d="M10.1187 2.60913C6.99065 4.3903 4.39018 6.99077 2.60901 10.1188V20.0005H7.82643V7.82663L20.0003 7.82655C20.0003 6.18101 20.0003 4.61335 20.0003 2.60913H10.1187Z" fill="#D80027"/>
<path d="M19.9996 17.5408L12.8939 10.4352H10.4345L19.9995 20.0003C19.9995 20.0003 19.9996 18.3046 19.9996 17.5408Z" fill="#D80027"/>
<path d="M12.0617 23.477L13.1593 25.7722L15.638 25.1993L14.528 27.4885L16.5213 29.0692L14.0395 29.6286L14.0464 32.1727L12.0617 30.581L10.077 32.1727L10.0839 29.6286L7.60205 29.0692L9.59541 27.4885L8.48525 25.1993L10.9641 25.7722L12.0617 23.477Z" fill="#F0F0F0"/>
<path d="M29.9431 27.8263L30.4919 28.9739L31.7313 28.6874L31.1762 29.832L32.1729 30.6224L30.932 30.9021L30.9354 32.1741L29.9431 31.3783L28.9507 32.1741L28.9541 30.9021L27.7133 30.6224L28.7099 29.832L28.1549 28.6874L29.3942 28.9739L29.9431 27.8263Z" fill="#F0F0F0"/>
<path d="M24.8389 15.6508L25.3876 16.7984L26.627 16.5119L26.072 17.6565L27.0686 18.4469L25.8278 18.7266L25.8311 19.9986L24.8389 19.2028L23.8465 19.9986L23.8499 18.7266L22.609 18.4469L23.6057 17.6565L23.0507 16.5119L24.29 16.7984L24.8389 15.6508Z" fill="#F0F0F0"/>
<path d="M29.9431 8.69507L30.4919 9.84272L31.7313 9.55624L31.1763 10.7008L32.1728 11.4912L30.932 11.7709L30.9354 13.043L29.9431 12.2471L28.9507 13.043L28.9541 11.7709L27.7133 11.4912L28.7098 10.7008L28.1549 9.55624L29.3942 9.84272L29.9431 8.69507Z" fill="#F0F0F0"/>
<path d="M34.4036 13.9123L34.9523 15.06L36.1917 14.7734L35.6367 15.918L36.6333 16.7084L35.3924 16.9882L35.3958 18.2601L34.4036 17.4643L33.4112 18.2601L33.4146 16.9882L32.1737 16.7084L33.1704 15.918L32.6154 14.7734L33.8547 15.06L34.4036 13.9123Z" fill="#F0F0F0"/>
<path d="M31.2152 20.0001L31.6469 21.3287H33.0439L31.9137 22.1498L32.3455 23.4784L31.2152 22.6573L30.0851 23.4784L30.5167 22.1498L29.3866 21.3287H30.7835L31.2152 20.0001Z" fill="#F0F0F0"/>
</g>
<defs>
<clipPath id="clip0_1_930">
<rect width="40" height="40" fill="white"/>
</clipPath>
</defs>
</svg>
