<svg width="40" height="40" viewBox="0 0 40 40" fill="none" xmlns="http://www.w3.org/2000/svg">
<g clip-path="url(#clip0_1_949)">
<path d="M20 40.0001C31.0457 40.0001 40 31.0458 40 20.0001C40 8.95443 31.0457 0.00012207 20 0.00012207C8.9543 0.00012207 0 8.95443 0 20.0001C0 31.0458 8.9543 40.0001 20 40.0001Z" fill="#F0F0F0"/>
<path d="M39.9993 19.9998C39.9993 12.0706 35.3849 5.21938 28.695 1.98438V38.0152C35.3849 34.7803 39.9993 27.9291 39.9993 19.9998Z" fill="#D80027"/>
<path d="M0 19.9998C0 27.9291 4.61445 34.7803 11.3044 38.0153V1.98438C4.61445 5.21938 0 12.0706 0 19.9998Z" fill="#D80027"/>
<path d="M23.4783 22.608L26.9565 20.8689L25.2174 19.9993V18.2602L21.7391 19.9993L23.4783 16.5211H21.7391L20 13.9124L18.2608 16.5211H16.5217L18.2608 19.9993L14.7825 18.2602V19.9993L13.0435 20.8689L16.5217 22.608L15.6522 24.3472H19.1304V26.9558H20.8695V24.3472H24.3478L23.4783 22.608Z" fill="#D80027"/>
</g>
<defs>
<clipPath id="clip0_1_949">
<rect width="40" height="40" fill="white"/>
</clipPath>
</defs>
</svg>
