<svg width="40" height="40" viewBox="0 0 40 40" fill="none" xmlns="http://www.w3.org/2000/svg">
<g clip-path="url(#clip0_1_941)">
<path d="M1.24316 26.9563C4.06902 34.5723 11.3999 39.9998 19.9992 39.9998C28.5985 39.9998 35.9293 34.5723 38.7552 26.9563L19.9992 25.2173L1.24316 26.9563Z" fill="#FFDA44"/>
<path d="M19.9992 0.00012207C11.3999 0.00012207 4.06902 5.42762 1.24316 13.0436L19.9992 14.7827L38.7552 13.0436C35.9293 5.42762 28.5985 0.00012207 19.9992 0.00012207Z" fill="black"/>
<path d="M1.24398 13.0436C0.440078 15.2102 0 17.5537 0 20.0001C0 22.4465 0.440078 24.7899 1.24398 26.9565H38.7561C39.56 24.7899 40 22.4465 40 20.0001C40 17.5537 39.56 15.2102 38.756 13.0436H1.24398Z" fill="#D80027"/>
</g>
<defs>
<clipPath id="clip0_1_941">
<rect width="40" height="40" fill="white"/>
</clipPath>
</defs>
</svg>
