<svg width="40" height="40" viewBox="0 0 40 40" fill="none" xmlns="http://www.w3.org/2000/svg">
<g clip-path="url(#clip0_1_945)">
<path d="M20 40.0001C31.0457 40.0001 40 31.0458 40 20.0001C40 8.95443 31.0457 0.00012207 20 0.00012207C8.9543 0.00012207 0 8.95443 0 20.0001C0 31.0458 8.9543 40.0001 20 40.0001Z" fill="#F0F0F0"/>
<path d="M19.1313 20.0004H40.0008C40.0008 18.1952 39.7602 16.4464 39.3118 14.7829H19.1313V20.0004Z" fill="#D80027"/>
<path d="M19.1313 9.56508H37.0653C35.841 7.56727 34.2756 5.80141 32.4505 4.34766H19.1313V9.56508Z" fill="#D80027"/>
<path d="M20.0013 40.0005C24.7083 40.0005 29.0346 38.3736 32.451 35.6526H7.55162C10.968 38.3736 15.2944 40.0005 20.0013 40.0005Z" fill="#D80027"/>
<path d="M2.93606 30.4338H37.0651C38.048 28.83 38.8103 27.0769 39.3116 25.2164H0.689575C1.1909 27.0769 1.95317 28.83 2.93606 30.4338Z" fill="#D80027"/>
<path d="M9.26437 3.1234H11.087L9.39164 4.35504L10.0392 6.34793L8.34398 5.11629L6.64875 6.34793L7.20813 4.62629C5.71547 5.86965 4.40719 7.32637 3.32906 8.9495H3.91305L2.83391 9.73348C2.66578 10.014 2.50453 10.2989 2.35 10.588L2.86531 12.174L1.90391 11.4755C1.66492 11.9818 1.44633 12.4996 1.24984 13.0281L1.81758 14.7756H3.91305L2.21773 16.0072L2.86531 18.0001L1.17008 16.7685L0.154609 17.5063C0.0529687 18.3233 0 19.1555 0 20.0001H20C20 8.9545 20 7.65231 20 0.00012207C16.0491 0.00012207 12.366 1.14622 9.26437 3.1234ZM10.0392 18.0001L8.34398 16.7685L6.64875 18.0001L7.29633 16.0072L5.60102 14.7756H7.69648L8.34398 12.7827L8.99148 14.7756H11.087L9.39164 16.0072L10.0392 18.0001ZM9.39164 10.1811L10.0392 12.174L8.34398 10.9424L6.64875 12.174L7.29633 10.1811L5.60102 8.9495H7.69648L8.34398 6.95661L8.99148 8.9495H11.087L9.39164 10.1811ZM17.2131 18.0001L15.5179 16.7685L13.8227 18.0001L14.4702 16.0072L12.7749 14.7756H14.8704L15.5179 12.7827L16.1654 14.7756H18.2609L16.5655 16.0072L17.2131 18.0001ZM16.5655 10.1811L17.2131 12.174L15.5179 10.9424L13.8227 12.174L14.4702 10.1811L12.7749 8.9495H14.8704L15.5179 6.95661L16.1654 8.9495H18.2609L16.5655 10.1811ZM16.5655 4.35504L17.2131 6.34793L15.5179 5.11629L13.8227 6.34793L14.4702 4.35504L12.7749 3.1234H14.8704L15.5179 1.13051L16.1654 3.1234H18.2609L16.5655 4.35504Z" fill="#0052B4"/>
</g>
<defs>
<clipPath id="clip0_1_945">
<rect width="40" height="40" fill="white"/>
</clipPath>
</defs>
</svg>
