<svg width="16" height="14" viewBox="0 0 16 14" fill="none" xmlns="http://www.w3.org/2000/svg">
<path fill-rule="evenodd" clip-rule="evenodd" d="M14.6153 6.54496C14.5204 7.20278 14.2954 7.828 13.9619 8.40294C13.9869 8.54529 13.9997 8.68917 13.9997 8.83368C13.9997 9.33556 13.8543 9.81589 13.5849 10.2523C13.4504 10.4701 13.4158 10.7254 13.4025 10.894C13.3873 11.0873 13.3924 11.2987 13.4062 11.5019C13.4217 11.7298 13.4497 11.9691 13.4818 12.1948C13.2216 12.119 12.9395 12.0427 12.6704 11.982C12.4465 11.9315 12.2174 11.8885 12.0099 11.867C11.8289 11.8483 11.5674 11.8339 11.3335 11.9095C10.8221 12.0748 10.2594 12.167 9.66636 12.167C8.96109 12.167 8.31335 12.0418 7.74559 11.8243C7.60903 11.8305 7.47147 11.8337 7.33301 11.8337C6.52993 11.8337 5.75701 11.7281 5.03385 11.5329C6.08516 12.7488 7.81828 13.5003 9.66636 13.5003C10.3883 13.5003 11.0812 13.3895 11.7198 13.1858C11.7209 13.1859 11.723 13.1858 11.726 13.1858C11.7424 13.1854 11.7879 13.1845 11.8729 13.1933C12.0067 13.2071 12.1786 13.2379 12.377 13.2827C12.7719 13.3718 13.2157 13.5032 13.5615 13.613C14.2949 13.8458 15.0056 13.2058 14.8745 12.4615C14.8181 12.1412 14.7595 11.7502 14.7365 11.4116C14.7249 11.2413 14.7236 11.1015 14.7317 10.9989C14.7351 10.9564 14.7394 10.9297 14.7421 10.9156C15.1172 10.2943 15.333 9.58683 15.333 8.83368C15.333 7.98465 15.0693 7.20934 14.6153 6.54496Z" fill="#787A80"/>
<path fill-rule="evenodd" clip-rule="evenodd" d="M3.73109 3.29882C2.83245 3.98601 2.33306 4.8881 2.33306 5.83337C2.33306 6.30473 2.45577 6.75871 2.68599 7.18086C2.77367 7.34165 2.79854 7.50751 2.80744 7.61979C2.81714 7.74222 2.8123 7.86805 2.80166 7.98572C2.78034 8.2213 2.72949 8.48822 2.66849 8.75113C2.59715 9.05866 2.50572 9.38663 2.41296 9.69457C2.76512 9.56658 3.15003 9.4354 3.51493 9.32895C3.80985 9.24291 4.10767 9.16825 4.37274 9.12634C4.60108 9.09023 4.93243 9.05474 5.2177 9.15344C5.85792 9.37494 6.57411 9.50004 7.33306 9.50004C8.76451 9.50004 10.0358 9.0556 10.935 8.36793C11.8337 7.68074 12.3331 6.77865 12.3331 5.83337C12.3331 4.8881 11.8337 3.98601 10.935 3.29882C10.0358 2.61115 8.76451 2.16671 7.33306 2.16671C5.90162 2.16671 4.63034 2.61115 3.73109 3.29882ZM2.92116 2.23967C4.07283 1.35898 5.63489 0.833374 7.33306 0.833374C9.03123 0.833374 10.5933 1.35898 11.745 2.23967C12.8973 3.12084 13.6664 4.38541 13.6664 5.83337C13.6664 7.28133 12.8973 8.54591 11.745 9.42708C10.5933 10.3078 9.03123 10.8334 7.33306 10.8334C6.43769 10.8334 5.58244 10.6874 4.80591 10.4218C4.80513 10.424 4.74215 10.4178 4.58098 10.4433C4.39521 10.4727 4.15809 10.5302 3.88836 10.6089C3.35138 10.7656 2.74835 10.9872 2.28902 11.166C1.49327 11.4757 0.682633 10.7114 0.95074 9.89734C1.09284 9.46586 1.26043 8.9206 1.36966 8.4498C1.42468 8.21263 1.46039 8.01323 1.47375 7.86557C1.47839 7.81431 1.47958 7.77695 1.47932 7.75169C1.17246 7.16531 0.99973 6.51687 0.99973 5.83337C0.99973 4.38541 1.76887 3.12084 2.92116 2.23967Z" fill="#787A80"/>
</svg>
