<svg width="14" height="14" viewBox="0 0 14 14" fill="none" xmlns="http://www.w3.org/2000/svg">
<path fill-rule="evenodd" clip-rule="evenodd" d="M8.00033 11.5834C8.58366 12.0001 9.33366 11.6667 9.33366 10.9167V7.16675L6.25033 10.2501L8.00033 11.5834Z" fill="white"/>
<path fill-rule="evenodd" clip-rule="evenodd" d="M13.2503 0.416748C12.917 0.0834147 12.417 0.0834147 12.0837 0.416748L9.33366 3.16675V1.08341C9.33366 0.416748 8.50033 8.13822e-05 8.00033 0.416748L5.66699 2.33341C5.33366 2.50008 5.00033 2.66675 4.58366 2.66675H2.66699C1.75033 2.66675 1.00033 3.41675 1.00033 4.33341V7.66675C1.00033 8.58342 1.75033 9.33342 2.66699 9.33342H3.16699L0.416992 12.0834C0.0836589 12.4167 0.0836589 12.9167 0.416992 13.2501C0.750326 13.5834 1.25033 13.5834 1.58366 13.2501L13.2503 1.58341C13.5837 1.25008 13.5837 0.750081 13.2503 0.416748Z" fill="#FF5A30"/>
</svg>
